<svg xmlns="http://www.w3.org/2000/svg" xmlns:xlink="http://www.w3.org/1999/xlink" width="500" zoomAndPan="magnify" viewBox="0 0 375 374.999991" height="500" preserveAspectRatio="xMidYMid meet" version="1.0"><defs><g/><clipPath id="3a92005c31"><path d="M 276 110 L 281.683594 110 L 281.683594 265 L 276 265 Z M 276 110 " clip-rule="nonzero"/></clipPath><clipPath id="3707323503"><path d="M 93.433594 110 L 100 110 L 100 265 L 93.433594 265 Z M 93.433594 110 " clip-rule="nonzero"/></clipPath><clipPath id="1a5698f891"><path d="M 110 93.433594 L 265 93.433594 L 265 100 L 110 100 Z M 110 93.433594 " clip-rule="nonzero"/></clipPath><clipPath id="35e209f8ce"><path d="M 110 276 L 265 276 L 265 281.683594 L 110 281.683594 Z M 110 276 " clip-rule="nonzero"/></clipPath><clipPath id="4c083bb38e"><path d="M 264 93.433594 L 281.683594 93.433594 L 281.683594 111 L 264 111 Z M 264 93.433594 " clip-rule="nonzero"/></clipPath><clipPath id="5818adccbd"><path d="M 93.433594 93.433594 L 111 93.433594 L 111 111 L 93.433594 111 Z M 93.433594 93.433594 " clip-rule="nonzero"/></clipPath><clipPath id="e83e520eab"><path d="M 264 264 L 281.683594 264 L 281.683594 281.683594 L 264 281.683594 Z M 264 264 " clip-rule="nonzero"/></clipPath><clipPath id="f6208fa0da"><path d="M 93.433594 264 L 111 264 L 111 281.683594 L 93.433594 281.683594 Z M 93.433594 264 " clip-rule="nonzero"/></clipPath></defs><g clip-path="url(#3a92005c31)"><path fill="#000000" d="M 276.058594 110.683594 L 281.683594 110.683594 L 281.683594 264.433594 L 276.058594 264.433594 Z M 276.058594 110.683594 " fill-opacity="1" fill-rule="nonzero"/></g><g clip-path="url(#3707323503)"><path fill="#000000" d="M 93.433594 110.683594 L 99.058594 110.683594 L 99.058594 264.433594 L 93.433594 264.433594 Z M 93.433594 110.683594 " fill-opacity="1" fill-rule="nonzero"/></g><g clip-path="url(#1a5698f891)"><path fill="#000000" d="M 110.683594 93.433594 L 264.433594 93.433594 L 264.433594 99.058594 L 110.683594 99.058594 Z M 110.683594 93.433594 " fill-opacity="1" fill-rule="nonzero"/></g><g clip-path="url(#35e209f8ce)"><path fill="#000000" d="M 110.683594 276.058594 L 264.433594 276.058594 L 264.433594 281.683594 L 110.683594 281.683594 Z M 110.683594 276.058594 " fill-opacity="1" fill-rule="nonzero"/></g><g clip-path="url(#4c083bb38e)"><path fill="#000000" d="M 276.058594 99.058594 L 276.058594 110.683594 L 281.683594 110.683594 L 281.683594 93.433594 L 264.433594 93.433594 L 264.433594 99.058594 Z M 276.058594 99.058594 " fill-opacity="1" fill-rule="nonzero"/></g><g clip-path="url(#5818adccbd)"><path fill="#000000" d="M 99.058594 99.058594 L 110.683594 99.058594 L 110.683594 93.433594 L 93.433594 93.433594 L 93.433594 110.683594 L 99.058594 110.683594 Z M 99.058594 99.058594 " fill-opacity="1" fill-rule="nonzero"/></g><g clip-path="url(#e83e520eab)"><path fill="#000000" d="M 276.058594 276.058594 L 264.433594 276.058594 L 264.433594 281.683594 L 281.683594 281.683594 L 281.683594 264.433594 L 276.058594 264.433594 Z M 276.058594 276.058594 " fill-opacity="1" fill-rule="nonzero"/></g><g clip-path="url(#f6208fa0da)"><path fill="#000000" d="M 99.058594 276.058594 L 99.058594 264.433594 L 93.433594 264.433594 L 93.433594 281.683594 L 110.683594 281.683594 L 110.683594 276.058594 Z M 99.058594 276.058594 " fill-opacity="1" fill-rule="nonzero"/></g><g fill="#000000" fill-opacity="1"><g transform="translate(109.165933, 214.499986)"><g><path d="M 15.921875 0 L 13.390625 0 L 13.390625 -58.21875 L 15.921875 -58.21875 Z M 10.859375 0 L 8.328125 0 L 8.328125 -58.21875 L 10.859375 -58.21875 Z M 5.796875 0 L 3.265625 0 L 3.265625 -58.21875 L 5.796875 -58.21875 Z M 20.984375 -12.65625 L 47.921875 -12.65625 L 47.921875 -10.125 L 20.984375 -10.125 L 20.984375 -7.59375 L 47.921875 -7.59375 L 47.921875 -5.0625 L 20.984375 -5.0625 L 20.984375 -2.53125 L 47.921875 -2.53125 L 47.921875 0 L 18.453125 0 L 18.453125 -58.21875 L 47.921875 -58.21875 L 47.921875 -55.6875 L 20.984375 -55.6875 L 20.984375 -53.15625 L 47.921875 -53.15625 L 47.921875 -50.625 L 20.984375 -50.625 L 20.984375 -48.09375 L 47.921875 -48.09375 L 47.921875 -45.5625 L 20.984375 -45.5625 L 20.984375 -35.4375 L 34.8125 -35.4375 L 34.8125 -32.90625 L 20.984375 -32.90625 L 20.984375 -30.375 L 34.8125 -30.375 L 34.8125 -27.84375 L 20.984375 -27.84375 L 20.984375 -25.3125 L 34.8125 -25.3125 L 34.8125 -22.78125 L 20.984375 -22.78125 Z M 20.984375 -12.65625 "/></g></g><g transform="translate(160.037023, 214.499986)"><g><path d="M 2.140625 -55.6875 L 2.140625 -58.21875 L 40.109375 -58.21875 L 40.109375 -55.6875 Z M 2.140625 -50.625 L 2.140625 -53.15625 L 40.109375 -53.15625 L 40.109375 -50.625 Z M 2.140625 -45.5625 L 2.140625 -48.09375 L 40.109375 -48.09375 L 40.109375 -45.5625 L 29.984375 -45.5625 L 29.984375 0 L 27.453125 0 L 27.453125 -45.5625 L 24.921875 -45.5625 L 24.921875 0 L 22.390625 0 L 22.390625 -45.5625 L 19.859375 -45.5625 L 19.859375 0 L 17.328125 0 L 17.328125 -45.5625 L 14.796875 -45.5625 L 14.796875 0 L 12.265625 0 L 12.265625 -45.5625 Z M 2.140625 -45.5625 "/></g></g><g transform="translate(202.611239, 214.499986)"><g><path d="M 44.609375 -28.015625 L 42.078125 -32.203125 L 42.078125 -58.21875 L 44.609375 -58.21875 Z M 49.671875 -19.71875 L 47.140625 -23.984375 L 47.140625 -58.21875 L 49.671875 -58.21875 Z M 54.734375 -11.328125 L 52.203125 -15.609375 L 52.203125 -58.21875 L 54.734375 -58.21875 Z M 18.453125 -30.203125 L 20.984375 -26.015625 L 20.984375 0 L 18.453125 0 Z M 13.390625 -38.5 L 15.921875 -34.25 L 15.921875 0 L 13.390625 0 Z M 8.328125 -46.90625 L 10.859375 -42.609375 L 10.859375 0 L 8.328125 0 Z M 9.21875 -58.21875 L 12.171875 -58.21875 L 47.953125 0 L 45 0 Z M 15.1875 -58.21875 L 18.171875 -58.21875 L 53.9375 0 L 50.90625 0 Z M 21.125 -58.21875 L 24.078125 -58.21875 L 57.265625 -4.109375 L 57.265625 -58.21875 L 59.796875 -58.21875 L 59.796875 0 C 59.796875 0 58.800781 0 56.8125 0 Z M 5.796875 -54.109375 L 5.796875 0 L 3.265625 0 L 3.265625 -58.21875 C 3.265625 -58.21875 4.273438 -58.21875 6.296875 -58.21875 L 41.984375 0 L 39.0625 0 Z M 5.796875 -54.109375 "/></g></g></g><g fill="#000000" fill-opacity="1"><g transform="translate(169.251542, 256.122785)"><g><path d="M 7.109375 -1.515625 L 7.109375 0 L 0.921875 0 L 0.921875 -8.90625 L 7 -8.90625 L 7 -7.390625 L 2.65625 -7.390625 L 2.65625 -5.25 L 6.40625 -5.25 L 6.40625 -3.84375 L 2.65625 -3.84375 L 2.65625 -1.515625 Z M 7.109375 -1.515625 "/></g></g></g><g fill="#000000" fill-opacity="1"><g transform="translate(182.607241, 256.122785)"><g><path d="M 7.59375 -7.390625 L 4.75 -7.390625 L 4.75 0 L 3.03125 0 L 3.03125 -7.390625 L 0.171875 -7.390625 L 0.171875 -8.90625 L 7.59375 -8.90625 Z M 7.59375 -7.390625 "/></g></g></g><g fill="#000000" fill-opacity="1"><g transform="translate(196.188652, 256.122785)"><g><path d="M 2.65625 -5.703125 L 2.65625 0 L 0.921875 0 L 0.921875 -8.90625 L 2.265625 -8.90625 L 6.90625 -3.0625 L 6.90625 -8.890625 L 8.640625 -8.890625 L 8.640625 0 L 7.234375 0 Z M 2.65625 -5.703125 "/></g></g></g></svg>